<svg xmlns="http://www.w3.org/2000/svg" viewBox="0 0 345.6 360.3">
  <style>
    .st2{display:inline;fill:#3B5A9A;} .st3{display:inline;} .st4{fill:#FFFFFF;} .st5{fill:#333333;}
  </style>
  <g id="Blue">
    <path id="Blue_1_" d="M291.5 311.8c8.1 0 14.7-6.6 14.7-14.7V59.6c0-8.1-6.6-14.7-14.7-14.7H54c-8.1 0-14.7 6.6-14.7 14.7V297c0 8.1 6.6 14.7 14.7 14.7h237.5z"/>
    <path id="f" class="st4" d="M223.4 311.8V208.4h34.7l5.2-40.3h-39.9v-25.7c0-11.7 3.2-19.6 20-19.6h21.3v-36c-3.7-.5-16.4-1.6-31.1-1.6-30.8 0-51.8 18.8-51.8 53.2v29.7H147v40.3h34.8v103.4h41.6z"/>
  </g>
</svg>
